<svg width="114" height="165" viewBox="0 0 114 165" fill="none" xmlns="http://www.w3.org/2000/svg">
<g style="mix-blend-mode:soft-light" opacity="0.3">
<mask id="mask0_40_2614" style="mask-type:alpha" maskUnits="userSpaceOnUse" x="0" y="0" width="114" height="146">
<path d="M0 0H114V146H0V0Z" fill="url(#paint0_linear_40_2614)"/>
</mask>
<g mask="url(#mask0_40_2614)">
<path d="M132.124 64.8128L37.7225 119.22L35.9179 122.126C45.4113 119.04 45.5543 123.4 51.2974 123.153C46.0807 127.594 42.2171 137.709 36.644 139.979C32.1068 141.831 23.6646 145.47 20.6889 146.757L13.8368 157.867L16.3303 161.208L136.241 99.6776L133.87 66.3387L132.124 64.8128Z" fill="#001C18"/>
<path d="M120.371 143.299C115.662 140.395 115.107 129.54 111.435 124.425C117.3 125.309 121.138 121.188 131.049 126.908L130.413 120.869L34.5045 69.3555L6.65507 96.3785L5.34163 98.8362L132.718 165.757L134.901 163.475L133.676 151.857C131.119 150.17 124.166 145.637 120.371 143.299Z" fill="#001C18"/>
<path d="M131.053 126.908L129.17 128.905C127.071 127.382 124.631 126.396 122.064 126.033C117.993 125.533 116.605 127.561 110.959 126.319C110.429 125.965 110.049 125.427 109.892 124.809C109.736 124.19 109.815 123.536 110.113 122.973L122.199 121.511L131.053 126.908Z" fill="#001C18"/>
<path d="M120.371 143.299C115.662 140.395 115.107 129.54 111.435 124.425C117.3 125.309 121.138 121.188 131.049 126.908L130.413 120.869L29.1629 67.7561L6.65496 96.3785L134.911 163.461L133.686 151.843C131.119 150.17 124.166 145.637 120.371 143.299Z" fill="#004B40"/>
<path d="M80.3955 94.6279L43.7296 115.761L74.0212 131.608L112.88 111.665L80.3955 94.6279Z" fill="#001C18"/>
<path d="M35.9181 122.126L37.5387 124.665C37.5387 124.665 40.1842 122.619 43.3245 123.77C46.4649 124.92 49.2555 126.878 53.6144 124.984C53.9278 123.32 53.6615 121.6 52.8598 120.109C52.8598 120.109 42.09 118.544 41.8623 118.579C41.6345 118.614 35.9181 122.126 35.9181 122.126Z" fill="#001C18"/>
<path d="M37.7225 119.22L35.9179 122.126C45.4113 119.04 45.5543 123.4 51.2974 123.153C46.0807 127.594 42.2171 137.709 36.644 139.979C32.1068 141.831 23.6646 145.47 20.6889 146.757L13.8368 157.867L133.792 97.8391L132.124 64.8128L37.7225 119.22Z" fill="#004B40"/>
<path d="M80.3279 92.7113L36.5061 115.194L67.1299 131.283L69.9699 129.78L80.3279 92.7113Z" fill="#001C18"/>
<path d="M80.328 92.7113L39.573 113.623L69.97 129.78L80.328 92.7113Z" fill="#001C18"/>
<path d="M9.13247 95.1235C9.13247 95.1235 61.8472 124.196 63.786 125.197C65.7249 126.198 69.6524 127.861 74.9801 125.248C80.3079 122.636 131.788 96.8155 131.788 96.8155L130.62 63.4213L130.133 62.6007L79.006 87.5028L33.6171 63.8875L8.98279 94.1565L9.13247 95.1235Z" fill="#001C18"/>
<path d="M8.98285 94.1565C8.98285 94.1565 61.6975 123.229 63.637 124.234C65.5765 125.239 69.5027 126.894 74.8311 124.285C80.1595 121.677 130.922 96.2417 130.922 96.2417L130.136 62.6206L78.8533 86.5159L33.465 62.9046L8.98285 94.1565Z" fill="#87D1A4"/>
<path d="M35.6659 61.9256L10.4072 93.6578L63.1218 122.731C63.1218 122.731 65.5096 121.133 67.3316 120.851C69.1537 120.569 73.6702 123.553 73.6702 123.553L128.492 95.7995L128.039 62.5033L122.74 61.0692L79.8408 84.4113L37.4041 61.6565L35.6659 61.9256Z" fill="#EFE8C5"/>
<path d="M14.9689 91.5401C14.9689 91.5401 26.7932 97.5123 36.5636 101.159C46.334 104.806 65.1576 114.682 67.3327 120.831C71.9064 114.509 77.6944 106.359 90.4439 102.978C103.193 99.597 118.98 95.4594 120.983 93.8319C121.233 88.155 122.768 61.0363 122.768 61.0363C118.498 62.5548 114.144 63.8258 109.728 64.8428C102.918 66.3634 82.225 74.1736 79.861 84.4083C75.5465 77.1795 70.2493 73.3024 60.7214 70.6408C51.1935 67.9791 37.4043 61.6565 37.4043 61.6565L14.9689 91.5401Z" fill="#FBF9EF"/>
<path d="M67.342 120.838C71.9064 114.509 77.6944 106.359 90.4439 102.978C103.193 99.597 118.98 95.4593 120.983 93.8319C121.233 88.155 122.768 61.0363 122.768 61.0363C118.498 62.5548 114.144 63.8257 109.728 64.8427C102.918 66.3634 82.225 74.1736 79.861 84.4082L67.342 120.838Z" fill="#FBF9EF"/>
<path d="M99.8144 101.716C76.098 110.399 67.3419 120.838 67.3419 120.838C69.176 120.554 73.6804 123.539 73.6804 123.539L128.503 95.7856C128.503 95.7856 123.386 94.4501 120.965 93.851C118.397 95.8934 113.265 96.7081 99.8144 101.716Z" fill="#FBF9EF"/>
<path d="M49.8235 105.412C41.1959 101.297 14.9687 91.5401 14.9687 91.5401L10.3866 93.6569L63.1013 122.73C63.1013 122.73 65.489 121.133 67.3111 120.851C67.3801 115.005 58.4472 109.527 49.8235 105.412Z" fill="#FBF9EF"/>
<path d="M49.8235 105.412C41.1959 101.297 14.9688 91.5401 14.9688 91.5401C14.9688 91.5401 49.3088 107.558 53.6691 109.612C58.0295 111.666 66.5125 117.304 67.3418 120.838C67.3801 115.005 58.4472 109.527 49.8235 105.412Z" fill="#FCCE98"/>
<path d="M14.6941 92.806C14.6941 92.806 59.1951 114.967 67.3417 120.838C61.1381 114.752 28.806 98.3586 14.6941 92.806Z" fill="#FCCE98"/>
<path d="M13.3796 93.0095L19.882 96.3727L26.3694 99.7709L39.3156 106.621L52.2164 113.548L58.6568 117.039L65.0735 120.563L58.5712 117.2L52.0838 113.801L39.1376 106.951L26.2362 100.021L19.7964 96.5332L13.3796 93.0095Z" fill="#FCCE98"/>
<path d="M69.176 120.554C71.127 119.069 73.125 117.651 75.1277 116.236C77.1304 114.822 79.1762 113.474 81.2365 112.14C82.266 111.47 83.302 110.814 84.3537 110.181C85.4054 109.547 86.4583 108.922 87.5552 108.343C89.7494 107.214 92.0082 106.238 94.2767 105.298C96.5451 104.358 98.8496 103.518 101.149 102.675C103.449 101.832 105.749 100.989 108.068 100.189C110.387 99.3878 112.675 98.5793 115.001 97.7407C117.319 96.9586 119.593 96.0506 121.813 95.0208C120.748 95.6327 119.647 96.179 118.515 96.6566C117.393 97.1535 116.258 97.6156 115.127 98.0812C112.845 98.9868 110.557 99.8524 108.266 100.727C103.686 102.463 99.0792 104.129 94.5592 105.987C92.2944 106.898 90.0398 107.848 87.8733 108.945C86.7966 109.496 85.7354 110.094 84.6843 110.731L81.5382 112.609C79.4481 113.882 77.3801 115.192 75.3278 116.525C73.2756 117.857 71.2218 119.206 69.176 120.554Z" fill="#FCCE98"/>
<path d="M71.136 120.766C75.1676 118.123 79.307 115.658 83.5543 113.369C85.6709 112.223 87.8195 111.125 90.0001 110.076C91.0799 109.545 92.1824 109.055 93.2785 108.55C94.3746 108.044 95.4894 107.581 96.6003 107.119C101.043 105.265 105.465 103.353 109.876 101.427C112.084 100.466 114.285 99.4893 116.48 98.4976C117.578 98.0045 118.676 97.5113 119.763 96.9993C120.85 96.4874 121.945 95.9783 123.001 95.3975C118.783 97.7279 114.372 99.6831 109.994 101.687C105.615 103.69 101.185 105.575 96.7432 107.461C92.2869 109.28 87.9396 111.381 83.6951 113.617C81.5655 114.733 79.4548 115.89 77.3628 117.089C75.2597 118.278 73.1815 119.496 71.136 120.766Z" fill="#FCCE98"/>
<path d="M66.0451 113.228L65.5708 112.622C63.9908 110.661 57.3415 106.322 50.8048 103.451C44.5572 100.703 26.0762 92.3534 25.8877 92.2721L25.4448 92.0542L43.4348 66.5452L43.8097 66.7204C43.9666 66.782 59.4754 72.7689 65.6078 75.5389C71.7401 78.3088 76.9627 83.2898 77.0159 83.343L77.3785 83.7819L77.3346 83.8951C77.2742 84.0599 71.1441 100.282 66.1654 112.947L66.0451 113.228ZM26.245 92.0163C28.2926 92.9268 45.0633 100.51 50.9517 103.105C56.8401 105.7 63.5695 109.843 65.6574 112.15C70.3877 100.101 76.1082 84.9851 76.665 83.5078C75.9574 82.8481 71.1106 78.4185 65.4531 75.8615C59.6376 73.2348 45.3686 67.6984 43.8079 67.1053L26.245 92.0163Z" fill="#004B40"/>
<path d="M72.2172 112.104L71.4895 113.113L81.5766 82.9111L81.5966 82.908C81.6365 82.8486 85.7236 76.9788 91.0692 74.032C99.1732 69.7948 113.544 66.0768 113.688 66.03L114.636 65.785L114.597 66.0611L110.525 93.1963L110.507 93.3218L109.72 93.5254C77.8399 100.666 72.2862 111.996 72.2172 112.104ZM81.9315 83.0894L72.7115 110.751C75.0879 107.601 83.7283 99.0054 109.533 93.1862C110.619 85.9561 113.183 68.8454 113.542 66.4577C111.517 66.992 98.7229 70.4537 91.277 74.3435C86.1544 77.1454 82.2001 82.6836 81.9315 83.0894Z" fill="#004B40"/>
</g>
</g>
<defs>
<linearGradient id="paint0_linear_40_2614" x1="0" y1="0" x2="125.694" y2="12.2794" gradientUnits="userSpaceOnUse">
<stop offset="0.00892858" stop-color="#006754"/>
<stop offset="1" stop-color="#87D1A4"/>
</linearGradient>
</defs>
</svg>
